<svg xmlns="http://www.w3.org/2000/svg" xmlns:xlink="http://www.w3.org/1999/xlink" width="760" height="560"><g transform="translate(20 20)"><path d="M440 260c0 44.18-35.82 80-80 80s-80-35.82-80-80 35.82-80 80-80 80 35.82 80 80z" stroke="#000" stroke-width="2" fill="none"/><use xlink:href="#a" transform="matrix(1,0,0,1,285,185) translate(4.299999999999983 78.60000000000001)"/><path d="M176 60c18.78 0 34 17.9 34 40s-15.22 40-34 40H74c-18.78 0-34-17.9-34-40s15.22-40 34-40z" stroke="#000" stroke-width="2" fill="none"/><use xlink:href="#b" transform="matrix(1,0,0,1,45,65) translate(0.8000000000000114 38.6)"/><path d="M408 0c17.67 0 32 17.9 32 40s-14.33 40-32 40h-96c-17.67 0-32-17.9-32-40s14.33-40 32-40z" stroke="#000" stroke-width="2" fill="none"/><use xlink:href="#c" transform="matrix(1,0,0,1,285,5) translate(54.5 38.6)"/><path d="M128 230c17.67 0 32 17.9 32 40s-14.33 40-32 40H32c-17.67 0-32-17.9-32-40s14.33-40 32-40z" stroke="#000" stroke-width="2" fill="none"/><use xlink:href="#d" transform="matrix(1,0,0,1,5,235) translate(33.05 38.6)"/><path d="M178 380c17.67 0 32 17.9 32 40s-14.33 40-32 40H82c-17.67 0-32-17.9-32-40s14.33-40 32-40z" stroke="#000" stroke-width="2" fill="none"/><use xlink:href="#e" transform="matrix(1,0,0,1,55,385) translate(45.05 38.6)"/><path d="M408 440c17.67 0 32 17.9 32 40s-14.33 40-32 40h-96c-17.67 0-32-17.9-32-40s14.33-40 32-40z" stroke="#000" stroke-width="2" fill="none"/><use xlink:href="#f" transform="matrix(1,0,0,1,285,445) translate(14.649999999999991 38.6)"/><path d="M648 380c17.67 0 32 17.9 32 40s-14.33 40-32 40h-96c-17.67 0-32-17.9-32-40s14.33-40 32-40z" stroke="#000" stroke-width="2" fill="none"/><use xlink:href="#g" transform="matrix(1,0,0,1,525,385) translate(21.124999999999993 38.6)"/><path d="M688 230c17.67 0 32 17.9 32 40s-14.33 40-32 40h-96c-17.67 0-32-17.9-32-40s14.33-40 32-40z" stroke="#000" stroke-width="2" fill="none"/><use xlink:href="#h" transform="matrix(1,0,0,1,565,235) translate(0.6749999999999972 38.6)"/><path d="M648 60c17.67 0 32 17.9 32 40s-14.33 40-32 40h-96c-17.67 0-32-17.9-32-40s14.33-40 32-40z" stroke="#000" stroke-width="2" fill="none"/><use xlink:href="#i" transform="matrix(1,0,0,1,525,65) translate(25.099999999999994 27.799999999999997)"/><use xlink:href="#j" transform="matrix(1,0,0,1,525,65) translate(16.599999999999994 49.4)"/><path d="M360 180V81" stroke="#000" stroke-width="2" fill="none"/><path d="M361 180.03l-1-.03h-.68l-.32.02V180h2zM364.64 95.27h-9.28L360 81z"/><path d="M366 96.27h-12L359.26 80h1.46zm-9.26-2h6.52L360 84.24z"/><path d="M293.9 215l-111.32-75.8" stroke="#000" stroke-width="2" fill="none"/><path d="M293.34 215.82l.56-.83zM196.98 143.4l-5.2 7.67-9.2-11.86z"/><path d="M198.6 142.83l-6.78 9.94-10.3-13.3.17-.03 2.76-.73zm-6.88 6.54l3.66-5.4-10.12-2.94z"/><path d="M280 260l-120 10" stroke="#000" stroke-width="2" fill="none"/><path d="M280 260l-.08-1h.1zM174.6 273.43L160 270l13.83-5.8z"/><path d="M175.7 274.72l-15.76-3.7.06-1.02-.04-1.07 14.75-6.2zm-12.48-5l10.27 2.43-.55-6.5z"/><path d="M294.35 305.67l-108.62 75.56" stroke="#000" stroke-width="2" fill="none"/><path d="M294.35 305.67l-.57-.82zM200.1 376.9l-14.37 4.33 9.07-11.95z"/><path d="M201.7 377.45l-14.3 4.32-2.67-.87 10.1-13.32zm-13.3 1.93l10.08-3.05-3.72-5.35z"/><path d="M360 340v100" stroke="#000" stroke-width="2" fill="none"/><path d="M360 340h-1v-.03zm1 0h-1 .68l.32-.02zM360 440l-4.64-14.27h9.28z"/><path d="M361.05 440h-2.1L354 424.73h12zm-4.3-13.27l3.25 10.03 3.26-10.03z"/><path d="M426.54 304.36l116.13 77.42" stroke="#000" stroke-width="2" fill="none"/><path d="M425.98 305.2l.56-.84zM542.67 381.78l-14.44-4.06 5.14-7.7z"/><path d="M543.63 381.4l-2.48 1-14.52-4.1 6.67-10zm-13.8-4.27l10.15 2.85-6.54-8.27z"/><path d="M439.9 262.85l120.28 4.3" stroke="#000" stroke-width="2" fill="none"/><path d="M439.95 261.85l-.04 1 .04-1zM560.18 267.15l-14.42 4.12.33-9.26z"/><path d="M560.24 266.1l-.13 2.1-15.4 4.4.44-12zm-13.44 3.83l10.14-2.9-9.9-3.6z"/><path d="M426.54 215.64l116.1-77.4" stroke="#000" stroke-width="2" fill="none"/><path d="M426.54 215.64l-.56-.83zM533.34 150l-5.15-7.7 14.44-4.06z"/><path d="M542.38 138.16l1.27.4-10.38 13.15-6.67-10 14.6-4.1zm-12.6 4.73l3.62 5.4 6.54-8.26z"/><defs><path d="M30-248c87 1 191-15 191 75 0 78-77 80-158 76V0H30v-248zm33 125c57 0 124 11 124-50 0-59-68-47-124-48v98" id="k"/><path d="M140-251c81 0 123 46 123 126C263-46 219 4 140 4 59 4 17-45 17-125s42-126 123-126zm0 227c63 0 89-41 89-101s-29-99-89-99c-61 0-89 39-89 99S79-25 140-24" id="l"/><path d="M185-189c-5-48-123-54-124 2 14 75 158 14 163 119 3 78-121 87-175 55-17-10-28-26-33-46l33-7c5 56 141 63 141-1 0-78-155-14-162-118-5-82 145-84 179-34 5 7 8 16 11 25" id="m"/><path d="M212-179c-10-28-35-45-73-45-59 0-87 40-87 99 0 60 29 101 89 101 43 0 62-24 78-52l27 14C228-24 195 4 139 4 59 4 22-46 18-125c-6-104 99-153 187-111 19 9 31 26 39 46" id="n"/><path d="M190 0L58-211 59 0H30v-248h39L202-35l-2-213h31V0h-41" id="o"/><path d="M63-220v92h138v28H63V0H30v-248h175v28H63" id="p"/><path d="M30 0v-248h33v221h125V0H30" id="q"/><path d="M33 0v-248h34V0H33" id="r"/><path d="M127-220V0H93v-220H8v-28h204v28h-85" id="s"/><g id="a"><use transform="matrix(0.05,0,0,0.05,0,0)" xlink:href="#k"/><use transform="matrix(0.05,0,0,0.05,12,0)" xlink:href="#l"/><use transform="matrix(0.05,0,0,0.05,26,0)" xlink:href="#m"/><use transform="matrix(0.05,0,0,0.05,38,0)" xlink:href="#n"/><use transform="matrix(0.05,0,0,0.05,50.95,0)" xlink:href="#l"/><use transform="matrix(0.05,0,0,0.05,64.95,0)" xlink:href="#o"/><use transform="matrix(0.05,0,0,0.05,77.9,0)" xlink:href="#p"/><use transform="matrix(0.05,0,0,0.05,88.85000000000001,0)" xlink:href="#q"/><use transform="matrix(0.05,0,0,0.05,98.85000000000001,0)" xlink:href="#r"/><use transform="matrix(0.05,0,0,0.05,103.85000000000001,0)" xlink:href="#n"/><use transform="matrix(0.05,0,0,0.05,116.80000000000001,0)" xlink:href="#s"/><use transform="matrix(0.05,0,0,0.05,127.40000000000003,0)" xlink:href="#l"/></g><path d="M205 0l-28-72H64L36 0H1l101-248h38L239 0h-34zm-38-99l-47-123c-12 45-31 82-46 123h93" id="t"/><path d="M233-177c-1 41-23 64-60 70L243 0h-38l-65-103H63V0H30v-248c88 3 205-21 203 71zM63-129c60-2 137 13 137-47 0-61-80-42-137-45v92" id="u"/><path d="M30-248c118-7 216 8 213 122C240-48 200 0 122 0H30v-248zM63-27c89 8 146-16 146-99s-60-101-146-95v194" id="v"/><g id="b"><use transform="matrix(0.05,0,0,0.05,0,0)" xlink:href="#t"/><use transform="matrix(0.05,0,0,0.05,12,0)" xlink:href="#q"/><use transform="matrix(0.05,0,0,0.05,22,0)" xlink:href="#n"/><use transform="matrix(0.05,0,0,0.05,34.95,0)" xlink:href="#t"/><use transform="matrix(0.05,0,0,0.05,46.95,0)" xlink:href="#o"/><use transform="matrix(0.05,0,0,0.05,59.900000000000006,0)" xlink:href="#s"/><use transform="matrix(0.05,0,0,0.05,69.5,0)" xlink:href="#t"/><use transform="matrix(0.05,0,0,0.05,81.5,0)" xlink:href="#u"/><use transform="matrix(0.05,0,0,0.05,94.45,0)" xlink:href="#r"/><use transform="matrix(0.05,0,0,0.05,99.45,0)" xlink:href="#q"/><use transform="matrix(0.05,0,0,0.05,109.45,0)" xlink:href="#q"/><use transform="matrix(0.05,0,0,0.05,119.45,0)" xlink:href="#t"/><use transform="matrix(0.05,0,0,0.05,131.45,0)" xlink:href="#v"/><use transform="matrix(0.05,0,0,0.05,144.39999999999998,0)" xlink:href="#l"/></g><path d="M137 0h-34L2-248h35l83 218 83-218h36" id="w"/><path d="M25-269c9-18 26-28 38-43h36v5l-54 38H25zM33 0v-248h34V0H33" id="x"/><g id="c"><use transform="matrix(0.05,0,0,0.05,0,0)" xlink:href="#w"/><use transform="matrix(0.05,0,0,0.05,12,0)" xlink:href="#x"/><use transform="matrix(0.05,0,0,0.05,17,0)" xlink:href="#t"/><use transform="matrix(0.05,0,0,0.05,29,0)" xlink:href="#m"/></g><path d="M30 0v-248h187v28H63v79h144v27H63v87h162V0H30" id="y"/><g id="d"><use transform="matrix(0.05,0,0,0.05,0,0)" xlink:href="#w"/><use transform="matrix(0.05,0,0,0.05,12,0)" xlink:href="#r"/><use transform="matrix(0.05,0,0,0.05,17,0)" xlink:href="#w"/><use transform="matrix(0.05,0,0,0.05,29,0)" xlink:href="#r"/><use transform="matrix(0.05,0,0,0.05,34,0)" xlink:href="#y"/><use transform="matrix(0.05,0,0,0.05,46,0)" xlink:href="#o"/><use transform="matrix(0.05,0,0,0.05,58.95,0)" xlink:href="#v"/><use transform="matrix(0.05,0,0,0.05,71.9,0)" xlink:href="#t"/></g><path d="M232-93c-1 65-40 97-104 97C67 4 28-28 28-90v-158h33c8 89-33 224 67 224 102 0 64-133 71-224h33v155" id="z"/><g id="e"><use transform="matrix(0.05,0,0,0.05,0,0)" xlink:href="#m"/><use transform="matrix(0.05,0,0,0.05,12,0)" xlink:href="#t"/><use transform="matrix(0.05,0,0,0.05,24,0)" xlink:href="#q"/><use transform="matrix(0.05,0,0,0.05,34,0)" xlink:href="#z"/><use transform="matrix(0.05,0,0,0.05,46.95,0)" xlink:href="#v"/></g><path d="M240-174c0 40-23 61-54 70L253 0h-59l-57-94H76V0H24v-248c93 4 217-23 216 74zM76-134c48-2 112 12 112-38 0-48-66-32-112-35v73" id="A"/><path d="M24 0v-248h195v40H76v63h132v40H76v65h150V0H24" id="B"/><path d="M67-125c0 53 21 87 73 88 37 1 54-22 65-47l45 17C233-25 199 4 140 4 58 4 20-42 15-125 8-235 124-281 211-232c18 10 29 29 36 50l-46 12c-8-25-30-41-62-41-52 0-71 34-72 86" id="C"/><path d="M199 0l-22-63H83L61 0H9l90-248h61L250 0h-51zm-33-102l-36-108c-10 38-24 72-36 108h72" id="D"/><path d="M24 0v-248h52V0H24" id="E"/><path d="M110-269v-5l44-45h46v8l-60 42h-30zm30 18c80 0 125 45 125 126S219 4 139 4C58 4 15-44 15-125s44-126 125-126zm-1 214c52 0 73-35 73-88 0-50-21-86-72-86-52 0-73 35-73 86s22 88 72 88" id="F"/><path d="M175 0L67-191c6 58 2 128 3 191H24v-248h59L193-55c-6-58-2-129-3-193h46V0h-61" id="G"/><g id="f"><use transform="matrix(0.05,0,0,0.05,0,0)" xlink:href="#A"/><use transform="matrix(0.05,0,0,0.05,12.950000000000001,0)" xlink:href="#B"/><use transform="matrix(0.05,0,0,0.05,24.950000000000003,0)" xlink:href="#C"/><use transform="matrix(0.05,0,0,0.05,37.900000000000006,0)" xlink:href="#A"/><use transform="matrix(0.05,0,0,0.05,50.85000000000001,0)" xlink:href="#B"/><use transform="matrix(0.05,0,0,0.05,62.85,0)" xlink:href="#D"/><use transform="matrix(0.05,0,0,0.05,75.80000000000001,0)" xlink:href="#C"/><use transform="matrix(0.05,0,0,0.05,88.75000000000001,0)" xlink:href="#E"/><use transform="matrix(0.05,0,0,0.05,93.75000000000001,0)" xlink:href="#F"/><use transform="matrix(0.05,0,0,0.05,107.75,0)" xlink:href="#G"/><path d="M-.9.97h122.5v1.9H-.9z"/></g><path d="M109-269c9-18 26-28 38-43h37v5l-55 38h-20zm31 18c81 0 123 46 123 126C263-46 219 4 140 4 59 4 17-45 17-125s42-126 123-126zm0 227c63 0 89-41 89-101s-29-99-89-99c-61 0-89 39-89 99S79-25 140-24" id="H"/><g id="g"><use transform="matrix(0.05,0,0,0.05,0,0)" xlink:href="#y"/><use transform="matrix(0.05,0,0,0.05,12,0)" xlink:href="#v"/><use transform="matrix(0.05,0,0,0.05,24.950000000000003,0)" xlink:href="#z"/><use transform="matrix(0.05,0,0,0.05,37.900000000000006,0)" xlink:href="#n"/><use transform="matrix(0.05,0,0,0.05,50.85000000000001,0)" xlink:href="#t"/><use transform="matrix(0.05,0,0,0.05,62.85,0)" xlink:href="#n"/><use transform="matrix(0.05,0,0,0.05,75.80000000000001,0)" xlink:href="#r"/><use transform="matrix(0.05,0,0,0.05,80.80000000000001,0)" xlink:href="#H"/><use transform="matrix(0.05,0,0,0.05,94.80000000000001,0)" xlink:href="#o"/></g><g id="h"><use transform="matrix(0.05,0,0,0.05,0,0)" xlink:href="#k"/><use transform="matrix(0.05,0,0,0.05,12,0)" xlink:href="#u"/><use transform="matrix(0.05,0,0,0.05,24.950000000000003,0)" xlink:href="#l"/><use transform="matrix(0.05,0,0,0.05,38.95,0)" xlink:href="#v"/><use transform="matrix(0.05,0,0,0.05,51.900000000000006,0)" xlink:href="#z"/><use transform="matrix(0.05,0,0,0.05,64.85000000000001,0)" xlink:href="#n"/><use transform="matrix(0.05,0,0,0.05,77.80000000000001,0)" xlink:href="#s"/><use transform="matrix(0.05,0,0,0.05,88.75000000000001,0)" xlink:href="#r"/><use transform="matrix(0.05,0,0,0.05,93.75000000000001,0)" xlink:href="#w"/><use transform="matrix(0.05,0,0,0.05,105.75,0)" xlink:href="#r"/><use transform="matrix(0.05,0,0,0.05,110.75,0)" xlink:href="#v"/><use transform="matrix(0.05,0,0,0.05,123.7,0)" xlink:href="#t"/><use transform="matrix(0.05,0,0,0.05,135.70000000000002,0)" xlink:href="#v"/></g><g id="i"><use transform="matrix(0.05,0,0,0.05,0,0)" xlink:href="#y"/><use transform="matrix(0.05,0,0,0.05,12,0)" xlink:href="#p"/><use transform="matrix(0.05,0,0,0.05,22.950000000000003,0)" xlink:href="#r"/><use transform="matrix(0.05,0,0,0.05,27.950000000000003,0)" xlink:href="#n"/><use transform="matrix(0.05,0,0,0.05,40.900000000000006,0)" xlink:href="#r"/><use transform="matrix(0.05,0,0,0.05,45.900000000000006,0)" xlink:href="#y"/><use transform="matrix(0.05,0,0,0.05,57.900000000000006,0)" xlink:href="#o"/><use transform="matrix(0.05,0,0,0.05,70.85000000000001,0)" xlink:href="#n"/><use transform="matrix(0.05,0,0,0.05,83.80000000000001,0)" xlink:href="#r"/><use transform="matrix(0.05,0,0,0.05,88.80000000000001,0)" xlink:href="#t"/></g><path d="M143 4C61 4 22-44 18-125c-5-107 100-154 193-111 17 8 29 25 37 43l-32 9c-13-25-37-40-76-40-61 0-88 39-88 99 0 61 29 100 91 101 35 0 62-11 79-27v-45h-74v-28h105v86C228-13 192 4 143 4" id="I"/><path d="M97-269c9-18 26-28 38-43h36v5l-54 38H97zM30 0v-248h187v28H63v79h144v27H63v87h162V0H30" id="J"/><g id="j"><use transform="matrix(0.05,0,0,0.05,0,0)" xlink:href="#y"/><use transform="matrix(0.05,0,0,0.05,12,0)" xlink:href="#o"/><use transform="matrix(0.05,0,0,0.05,24.950000000000003,0)" xlink:href="#y"/><use transform="matrix(0.05,0,0,0.05,36.95,0)" xlink:href="#u"/><use transform="matrix(0.05,0,0,0.05,49.900000000000006,0)" xlink:href="#I"/><use transform="matrix(0.05,0,0,0.05,63.900000000000006,0)" xlink:href="#J"/><use transform="matrix(0.05,0,0,0.05,75.9,0)" xlink:href="#s"/><use transform="matrix(0.05,0,0,0.05,86.85000000000001,0)" xlink:href="#r"/><use transform="matrix(0.05,0,0,0.05,91.85000000000001,0)" xlink:href="#n"/><use transform="matrix(0.05,0,0,0.05,104.80000000000001,0)" xlink:href="#t"/></g></defs></g></svg>